<?xml version="1.0" encoding="UTF-8"?>
<svg width="32" height="32" viewBox="0 0 32 32" fill="none" xmlns="http://www.w3.org/2000/svg">
  <defs>
    <linearGradient id="bgGradient" x1="0%" y1="0%" x2="100%" y2="100%">
      <stop offset="0%" style="stop-color:#10b981;stop-opacity:1" />
      <stop offset="100%" style="stop-color:#059669;stop-opacity:1" />
    </linearGradient>
    <filter id="shadow" x="-20%" y="-20%" width="140%" height="140%">
      <feDropShadow dx="0" dy="1" stdDeviation="2" flood-color="#000000" flood-opacity="0.2"/>
    </filter>
  </defs>
  
  <!-- Background -->
  <rect width="32" height="32" rx="6" fill="url(#bgGradient)" filter="url(#shadow)"/>
  
  <!-- Puzzle grid -->
  <g transform="translate(4, 4)">
    <!-- Row 1 -->
    <rect x="1" y="1" width="6" height="6" rx="1" fill="#ffffff" opacity="0.9"/>
    <rect x="9" y="1" width="6" height="6" rx="1" fill="#ffffff" opacity="0.7"/>
    <rect x="17" y="1" width="6" height="6" rx="1" fill="#ffffff" opacity="0.9"/>
    
    <!-- Row 2 -->
    <rect x="1" y="9" width="6" height="6" rx="1" fill="#ffffff" opacity="0.8"/>
    <rect x="9" y="9" width="6" height="6" rx="1" fill="#fbbf24" opacity="1"/>
    <rect x="17" y="9" width="6" height="6" rx="1" fill="#ffffff" opacity="0.6"/>
    
    <!-- Row 3 -->
    <rect x="1" y="17" width="6" height="6" rx="1" fill="#ffffff" opacity="0.7"/>
    <rect x="9" y="17" width="6" height="6" rx="1" fill="#ffffff" opacity="0.9"/>
    <rect x="17" y="17" width="6" height="6" rx="1" fill="#ffffff" opacity="0.8"/>
  </g>
  
  <!-- Letter W in center -->
  <text x="16" y="19" font-family="system-ui, -apple-system, sans-serif" font-size="12" font-weight="900" fill="#047857" text-anchor="middle" dominant-baseline="middle">W</text>
</svg>
